<svg width="80" height="80" viewBox="0 0 80 80" fill="none" xmlns="http://www.w3.org/2000/svg">
<path d="M33.332 43.3319C34.7635 45.2457 36.5899 46.8292 38.6872 47.975C40.7845 49.1209 43.1037 49.8023 45.4875 49.973C47.8713 50.1438 50.264 49.7998 52.5032 48.9645C54.7424 48.1292 56.7757 46.8221 58.4654 45.1319L68.4654 35.1319C71.5013 31.9885 73.1812 27.7785 73.1433 23.4086C73.1053 19.0386 71.3525 14.8584 68.2623 11.7683C65.1722 8.67814 60.992 6.92532 56.622 6.88735C52.2521 6.84938 48.0421 8.52928 44.8987 11.5652L39.1654 17.2652" stroke="#317302" stroke-width="7" stroke-linecap="round" stroke-linejoin="round"/>
<path d="M46.6673 36.6681C45.2358 34.7543 43.4095 33.1708 41.3122 32.0249C39.2149 30.8791 36.8956 30.1977 34.5118 30.027C32.128 29.8562 29.7354 30.2002 27.4962 31.0355C25.257 31.8707 23.2236 33.1778 21.534 34.8681L11.534 44.8681C8.49803 48.0114 6.81813 52.2215 6.8561 56.5914C6.89407 60.9614 8.64689 65.1416 11.737 68.2317C14.8272 71.3218 19.0074 73.0747 23.3773 73.1126C27.7473 73.1506 31.9573 71.4707 35.1007 68.4347L40.8007 62.7347" stroke="#317302" stroke-width="7" stroke-linecap="round" stroke-linejoin="round"/>
</svg>
