<svg width="426" height="425" viewBox="0 0 426 425" fill="none" xmlns="http://www.w3.org/2000/svg">
<path d="M83.799 176.782H13.7109V383.035C13.7109 390.85 18.3851 398.344 26.7053 403.87C35.0254 409.396 46.31 412.5 58.0765 412.5H368.635C380.402 412.5 391.686 409.396 400.006 403.87C408.326 398.344 413.001 390.85 413.001 383.035V176.782L342.913 176.781L83.799 176.782Z" stroke="#E34302" stroke-width="25" stroke-linecap="round" stroke-linejoin="round"/>
<path d="M13.7109 171.168H411.939" stroke="#E34302" stroke-width="25" stroke-linecap="round" stroke-linejoin="round"/>
<path d="M301.318 237.98C301.318 255.701 291.995 272.695 275.399 285.225C258.803 297.755 236.294 304.794 212.823 304.794C189.353 304.794 166.844 297.755 150.248 285.225C133.652 272.695 124.328 255.701 124.328 237.98" stroke="#E34302" stroke-width="25" stroke-linecap="round" stroke-linejoin="round"/>
<path d="M176.272 157.537C162.873 157.631 149.922 153.897 140.017 147.084C130.112 140.271 123.985 130.882 122.866 120.801C121.746 110.719 125.716 100.691 133.98 92.7275C142.243 84.7639 154.19 79.4536 167.422 77.8618C165.304 70.7833 165.77 63.4034 168.771 56.5093C171.772 49.6151 177.195 43.4653 184.462 38.7158C191.73 33.9662 200.568 30.7952 210.035 29.5408C219.503 28.2864 229.243 28.9958 238.218 31.5933C242.148 26.9224 247.316 22.9163 253.397 19.8274C259.479 16.7384 266.341 14.6334 273.552 13.6449C280.764 12.6564 288.168 12.8058 295.299 14.0837C302.43 15.3616 309.134 17.7403 314.988 21.0701C325.199 15.0105 337.998 11.9869 350.963 12.5713C363.928 13.1557 376.16 17.3077 385.344 24.2416C394.528 31.1755 400.027 40.4104 400.801 50.199C401.576 59.9876 397.571 69.651 389.545 77.3607C394.54 82.3705 397.91 88.1954 399.382 94.367C400.854 100.539 400.387 106.885 398.021 112.896C395.654 118.907 391.452 124.414 385.753 128.976C380.055 133.539 373.018 137.028 365.209 139.163C367.227 145.176 367.454 151.451 365.872 157.537" stroke="#E34302" stroke-width="25" stroke-linecap="round" stroke-linejoin="round"/>
<path d="M212.117 157.534L300.612 90.7207" stroke="#E34302" stroke-width="25" stroke-linecap="round" stroke-linejoin="round"/>
<path d="M165.655 78.1984C153.52 68.4314 137.769 61.651 120.456 58.741C103.142 55.831 85.0692 56.9264 68.5922 61.8844C52.1153 66.8424 37.9988 75.433 28.0828 86.5365C18.1668 97.64 12.9112 110.741 13.0011 124.133C13.0011 136.326 17.4259 147.685 24.948 157.54" stroke="#E34302" stroke-width="25" stroke-linecap="round" stroke-linejoin="round"/>
</svg>
