<svg width="1280" height="480" viewBox="0 0 1280 480" fill="none" xmlns="http://www.w3.org/2000/svg">
<rect width="1280" height="480" fill="#F2F2F2"/>
<path d="M740 240C740 295.228 695.228 340 640 340C584.772 340 540 295.228 540 240C540 184.772 584.772 140 640 140C695.228 140 740 184.772 740 240Z" fill="#3B3E3F"/>
<path d="M639.04 218.557L639.051 218.568C634.577 223.042 631.898 228.944 631.603 234.976C631.307 241.008 633.42 246.676 637.477 250.732C641.533 254.789 647.201 256.902 653.233 256.607C659.265 256.311 665.167 253.632 669.641 249.158L669.653 249.17L697.771 221.052C702.917 215.906 711.259 215.906 716.405 221.052C721.551 226.198 721.551 234.541 716.405 239.686L685.126 270.965C684.14 271.952 683.036 272.749 681.86 273.357C673.019 279.932 662.539 283.812 651.876 284.334C643.218 284.757 634.899 282.946 627.666 279.177L606.928 299.915C601.783 305.061 593.44 305.061 588.294 299.915C583.148 294.769 583.148 286.426 588.294 281.281L609.032 260.543C605.264 253.31 603.452 244.991 603.876 236.334C604.398 225.655 608.288 215.159 614.881 206.31C615.488 205.143 616.281 204.047 617.261 203.067L620.17 200.158C620.248 200.079 620.327 200 620.405 199.922L620.406 199.923L648.54 171.788C653.686 166.643 662.028 166.643 667.174 171.788C672.32 176.934 672.32 185.277 667.174 190.423L639.04 218.557Z" fill="#F2F2F2"/>
<path d="M643.116 245.094C637.97 239.948 637.97 231.605 643.116 226.459L673.147 196.428C678.293 191.282 686.636 191.282 691.781 196.428C696.927 201.574 696.927 209.917 691.781 215.062L661.75 245.094C656.604 250.239 648.261 250.239 643.116 245.094Z" fill="#F2F2F2"/>
</svg>
