<svg width="2000" height="3898" viewBox="0 0 2000 3898" fill="none" xmlns="http://www.w3.org/2000/svg">
<path d="M198.625 184.624C204.101 184.624 208.541 180.185 208.541 174.708C208.541 169.231 204.101 164.791 198.625 164.791C193.148 164.791 188.708 169.231 188.708 174.708C188.708 180.185 193.148 184.624 198.625 184.624Z" stroke="#7D7D7D" stroke-opacity="0.05" stroke-width="7" stroke-linecap="round" stroke-linejoin="round"/>
<path d="M189.7 179.171L168.875 194.542V239.167C168.875 242.142 170.858 244.125 173.833 244.125H253.167C256.142 244.125 258.125 242.142 258.125 239.167V194.542C258.125 184.625 243.25 164.792 223.417 154.875L205.567 167.767" stroke="#7D7D7D" stroke-opacity="0.05" stroke-width="7" stroke-linecap="round" stroke-linejoin="round"/>
<path d="M233.333 204.459H168.875" stroke="#7D7D7D" stroke-opacity="0.05" stroke-width="7" stroke-linecap="round" stroke-linejoin="round"/>
<path d="M233.333 224.291H168.875" stroke="#7D7D7D" stroke-opacity="0.05" stroke-width="7" stroke-linecap="round" stroke-linejoin="round"/>
<path d="M1511.62 598.624C1517.1 598.624 1521.54 594.185 1521.54 588.708C1521.54 583.231 1517.1 578.791 1511.62 578.791C1506.15 578.791 1501.71 583.231 1501.71 588.708C1501.71 594.185 1506.15 598.624 1511.62 598.624Z" stroke="#7D7D7D" stroke-opacity="0.05" stroke-width="7" stroke-linecap="round" stroke-linejoin="round"/>
<path d="M1502.7 593.171L1481.88 608.542V653.167C1481.88 656.142 1483.86 658.125 1486.83 658.125H1566.17C1569.14 658.125 1571.13 656.142 1571.13 653.167V608.542C1571.13 598.625 1556.25 578.792 1536.42 568.875L1518.57 581.767" stroke="#7D7D7D" stroke-opacity="0.05" stroke-width="7" stroke-linecap="round" stroke-linejoin="round"/>
<path d="M1546.33 618.459H1481.88" stroke="#7D7D7D" stroke-opacity="0.05" stroke-width="7" stroke-linecap="round" stroke-linejoin="round"/>
<path d="M1546.33 638.291H1481.88" stroke="#7D7D7D" stroke-opacity="0.05" stroke-width="7" stroke-linecap="round" stroke-linejoin="round"/>
<path d="M258.625 1475.62C264.101 1475.62 268.541 1471.18 268.541 1465.71C268.541 1460.23 264.101 1455.79 258.625 1455.79C253.148 1455.79 248.708 1460.23 248.708 1465.71C248.708 1471.18 253.148 1475.62 258.625 1475.62Z" stroke="#7D7D7D" stroke-opacity="0.05" stroke-width="7" stroke-linecap="round" stroke-linejoin="round"/>
<path d="M249.7 1470.17L228.875 1485.54V1530.17C228.875 1533.14 230.858 1535.13 233.833 1535.13H313.167C316.142 1535.13 318.125 1533.14 318.125 1530.17V1485.54C318.125 1475.63 303.25 1455.79 283.417 1445.88L265.567 1458.77" stroke="#7D7D7D" stroke-opacity="0.05" stroke-width="7" stroke-linecap="round" stroke-linejoin="round"/>
<path d="M293.333 1495.46H228.875" stroke="#7D7D7D" stroke-opacity="0.05" stroke-width="7" stroke-linecap="round" stroke-linejoin="round"/>
<path d="M293.333 1515.29H228.875" stroke="#7D7D7D" stroke-opacity="0.05" stroke-width="7" stroke-linecap="round" stroke-linejoin="round"/>
<path d="M1067.62 1988.62C1073.1 1988.62 1077.54 1984.18 1077.54 1978.71C1077.54 1973.23 1073.1 1968.79 1067.62 1968.79C1062.15 1968.79 1057.71 1973.23 1057.71 1978.71C1057.71 1984.18 1062.15 1988.62 1067.62 1988.62Z" stroke="#7D7D7D" stroke-opacity="0.05" stroke-width="7" stroke-linecap="round" stroke-linejoin="round"/>
<path d="M1058.7 1983.17L1037.88 1998.54V2043.17C1037.88 2046.14 1039.86 2048.13 1042.83 2048.13H1122.17C1125.14 2048.13 1127.13 2046.14 1127.13 2043.17V1998.54C1127.13 1988.63 1112.25 1968.79 1092.42 1958.88L1074.57 1971.77" stroke="#7D7D7D" stroke-opacity="0.05" stroke-width="7" stroke-linecap="round" stroke-linejoin="round"/>
<path d="M1102.33 2008.46H1037.88" stroke="#7D7D7D" stroke-opacity="0.05" stroke-width="7" stroke-linecap="round" stroke-linejoin="round"/>
<path d="M1102.33 2028.29H1037.88" stroke="#7D7D7D" stroke-opacity="0.05" stroke-width="7" stroke-linecap="round" stroke-linejoin="round"/>
<path d="M651 354.541H651.051" stroke="#7D7D7D" stroke-opacity="0.05" stroke-width="7" stroke-linecap="round" stroke-linejoin="round"/>
<path d="M631 374.375H631.051" stroke="#7D7D7D" stroke-opacity="0.05" stroke-width="7" stroke-linecap="round" stroke-linejoin="round"/>
<path d="M656 379.334H656.051" stroke="#7D7D7D" stroke-opacity="0.05" stroke-width="7" stroke-linecap="round" stroke-linejoin="round"/>
<path d="M586 379.333L686 409.083L656 309.916C639.26 314.467 624.004 323.261 611.73 335.432C599.457 347.603 590.589 362.733 586 379.333Z" stroke="#7D7D7D" stroke-opacity="0.05" stroke-width="7" stroke-linecap="round" stroke-linejoin="round"/>
<path d="M604.55 384.837C608.607 371.482 615.936 359.33 625.882 349.467C635.828 339.604 648.082 332.336 661.55 328.312" stroke="#7D7D7D" stroke-opacity="0.05" stroke-width="7" stroke-linecap="round" stroke-linejoin="round"/>
<path d="M1743 1030.54H1743.05" stroke="#7D7D7D" stroke-opacity="0.05" stroke-width="7" stroke-linecap="round" stroke-linejoin="round"/>
<path d="M1723 1050.38H1723.05" stroke="#7D7D7D" stroke-opacity="0.05" stroke-width="7" stroke-linecap="round" stroke-linejoin="round"/>
<path d="M1748 1055.33H1748.05" stroke="#7D7D7D" stroke-opacity="0.05" stroke-width="7" stroke-linecap="round" stroke-linejoin="round"/>
<path d="M1678 1055.33L1778 1085.08L1748 985.916C1731.26 990.467 1716 999.261 1703.73 1011.43C1691.46 1023.6 1682.59 1038.73 1678 1055.33Z" stroke="#7D7D7D" stroke-opacity="0.05" stroke-width="7" stroke-linecap="round" stroke-linejoin="round"/>
<path d="M1696.55 1060.84C1700.61 1047.48 1707.94 1035.33 1717.88 1025.47C1727.83 1015.6 1740.08 1008.34 1753.55 1004.31" stroke="#7D7D7D" stroke-opacity="0.05" stroke-width="7" stroke-linecap="round" stroke-linejoin="round"/>
<path d="M946.808 131.003L975.517 115.087C984.888 109.881 999.268 123.913 993.913 133.483L977.947 162.29C967.633 180.835 927.917 141.515 946.808 131.003Z" stroke="#7D7D7D" stroke-opacity="0.05" stroke-width="7" stroke-linecap="round" stroke-linejoin="round"/>
<path d="M976.063 113.104L971.104 101.75C969.617 98.13 967.634 95.75 963.667 95.75H946.313C937.834 95.75 933.917 98.2292 933.917 108.146C934.333 117.04 937.84 125.51 943.834 132.095" stroke="#7D7D7D" stroke-opacity="0.05" stroke-width="7" stroke-linecap="round" stroke-linejoin="round"/>
<path d="M963.667 95.7493C963.667 88.0639 964.857 75.916 953.75 75.916C943.834 75.916 941.354 86.6756 941.354 95.7493" stroke="#7D7D7D" stroke-opacity="0.05" stroke-width="7" stroke-linecap="round" stroke-linejoin="round"/>
<path d="M995.896 132.938L1007.25 137.896C1010.87 139.383 1013.25 141.367 1013.25 145.333V162.687C1013.25 171.166 1010.77 175.083 1000.85 175.083C991.96 174.668 983.49 171.16 976.905 165.167" stroke="#7D7D7D" stroke-opacity="0.05" stroke-width="7" stroke-linecap="round" stroke-linejoin="round"/>
<path d="M1013.25 145.334C1020.94 145.334 1033.08 144.144 1033.08 155.251C1033.08 165.167 1022.32 167.646 1013.25 167.646" stroke="#7D7D7D" stroke-opacity="0.05" stroke-width="7" stroke-linecap="round" stroke-linejoin="round"/>
<path d="M228.5 657.828C235.938 657.828 242.136 663.084 248.334 663.084C263.209 663.084 278.084 623.417 278.084 602.493C277.915 596.071 275.214 589.975 270.57 585.536C265.926 581.096 259.716 578.672 253.292 578.792C242.284 578.792 233.459 585.932 228.5 588.709C223.542 585.932 214.716 578.792 203.709 578.792C197.281 578.659 191.063 581.079 186.417 585.521C181.77 589.964 179.073 596.066 178.917 602.493C178.917 623.417 193.792 663.084 208.667 663.084C214.865 663.084 221.063 657.828 228.5 657.828Z" stroke="#7D7D7D" stroke-opacity="0.05" stroke-width="7" stroke-linecap="round" stroke-linejoin="round"/>
<path d="M218.583 563.916C223.541 566.395 228.5 573.833 228.5 588.708" stroke="#7D7D7D" stroke-opacity="0.05" stroke-width="7" stroke-linecap="round" stroke-linejoin="round"/>
<path d="M1332.5 905.828C1339.94 905.828 1346.14 911.084 1352.33 911.084C1367.21 911.084 1382.08 871.417 1382.08 850.493C1381.91 844.071 1379.21 837.975 1374.57 833.536C1369.93 829.096 1363.72 826.672 1357.29 826.792C1346.28 826.792 1337.46 833.932 1332.5 836.709C1327.54 833.932 1318.72 826.792 1307.71 826.792C1301.28 826.659 1295.06 829.079 1290.42 833.521C1285.77 837.964 1283.07 844.066 1282.92 850.493C1282.92 871.417 1297.79 911.084 1312.67 911.084C1318.86 911.084 1325.06 905.828 1332.5 905.828Z" stroke="#7D7D7D" stroke-opacity="0.05" stroke-width="7" stroke-linecap="round" stroke-linejoin="round"/>
<path d="M1322.58 811.916C1327.54 814.395 1332.5 821.833 1332.5 836.708" stroke="#7D7D7D" stroke-opacity="0.05" stroke-width="7" stroke-linecap="round" stroke-linejoin="round"/>
<path d="M1692.5 174.916C1682.69 174.916 1673.11 177.824 1664.95 183.272C1656.8 188.721 1650.44 196.464 1646.69 205.525C1642.94 214.585 1641.96 224.554 1643.87 234.173C1645.78 243.791 1650.51 252.626 1657.44 259.56C1664.37 266.494 1673.21 271.217 1682.83 273.13C1692.45 275.043 1702.41 274.061 1711.48 270.308C1720.54 266.556 1728.28 260.2 1733.73 252.046C1739.18 243.892 1742.08 234.306 1742.08 224.499C1738.64 225.56 1734.97 225.662 1731.47 224.793C1727.97 223.924 1724.77 222.118 1722.22 219.569C1719.67 217.019 1717.87 213.823 1717 210.323C1716.13 206.824 1716.23 203.154 1717.29 199.708C1713.85 200.769 1710.18 200.87 1706.68 200.002C1703.18 199.133 1699.98 197.326 1697.43 194.777C1694.88 192.227 1693.08 189.031 1692.21 185.531C1691.34 182.032 1691.44 178.362 1692.5 174.916Z" stroke="#7D7D7D" stroke-opacity="0.05" stroke-width="7" stroke-linecap="round" stroke-linejoin="round"/>
<path d="M1675.15 207.146V207.196" stroke="#7D7D7D" stroke-opacity="0.05" stroke-width="7" stroke-linecap="round" stroke-linejoin="round"/>
<path d="M1712.33 241.854V241.903" stroke="#7D7D7D" stroke-opacity="0.05" stroke-width="7" stroke-linecap="round" stroke-linejoin="round"/>
<path d="M1692.5 224.5V224.55" stroke="#7D7D7D" stroke-opacity="0.05" stroke-width="7" stroke-linecap="round" stroke-linejoin="round"/>
<path d="M1687.54 249.291V249.341" stroke="#7D7D7D" stroke-opacity="0.05" stroke-width="7" stroke-linecap="round" stroke-linejoin="round"/>
<path d="M1667.71 234.416V234.466" stroke="#7D7D7D" stroke-opacity="0.05" stroke-width="7" stroke-linecap="round" stroke-linejoin="round"/>
<path d="M983.5 598.916C973.694 598.916 964.107 601.824 955.953 607.272C947.799 612.721 941.444 620.464 937.691 629.525C933.938 638.585 932.957 648.554 934.87 658.173C936.783 667.791 941.505 676.626 948.44 683.56C955.374 690.494 964.209 695.217 973.827 697.13C983.445 699.043 993.415 698.061 1002.48 694.308C1011.54 690.556 1019.28 684.2 1024.73 676.046C1030.18 667.892 1033.08 658.306 1033.08 648.499C1029.64 649.56 1025.97 649.662 1022.47 648.793C1018.97 647.924 1015.77 646.118 1013.22 643.569C1010.67 641.019 1008.87 637.823 1008 634.323C1007.13 630.824 1007.23 627.154 1008.29 623.708C1004.85 624.769 1001.18 624.87 997.677 624.002C994.177 623.133 990.981 621.326 988.431 618.777C985.882 616.227 984.075 613.031 983.206 609.531C982.338 606.032 982.439 602.362 983.5 598.916Z" stroke="#7D7D7D" stroke-opacity="0.05" stroke-width="7" stroke-linecap="round" stroke-linejoin="round"/>
<path d="M966.146 631.146V631.196" stroke="#7D7D7D" stroke-opacity="0.05" stroke-width="7" stroke-linecap="round" stroke-linejoin="round"/>
<path d="M1003.33 665.854V665.903" stroke="#7D7D7D" stroke-opacity="0.05" stroke-width="7" stroke-linecap="round" stroke-linejoin="round"/>
<path d="M983.5 648.5V648.55" stroke="#7D7D7D" stroke-opacity="0.05" stroke-width="7" stroke-linecap="round" stroke-linejoin="round"/>
<path d="M978.542 673.291V673.341" stroke="#7D7D7D" stroke-opacity="0.05" stroke-width="7" stroke-linecap="round" stroke-linejoin="round"/>
<path d="M958.708 658.416V658.466" stroke="#7D7D7D" stroke-opacity="0.05" stroke-width="7" stroke-linecap="round" stroke-linejoin="round"/>
<path d="M1561.5 2131.92C1551.69 2131.92 1542.11 2134.82 1533.95 2140.27C1525.8 2145.72 1519.44 2153.46 1515.69 2162.52C1511.94 2171.58 1510.96 2181.55 1512.87 2191.17C1514.78 2200.79 1519.51 2209.63 1526.44 2216.56C1533.37 2223.49 1542.21 2228.22 1551.83 2230.13C1561.45 2232.04 1571.41 2231.06 1580.48 2227.31C1589.54 2223.56 1597.28 2217.2 1602.73 2209.05C1608.18 2200.89 1611.08 2191.31 1611.08 2181.5C1607.64 2182.56 1603.97 2182.66 1600.47 2181.79C1596.97 2180.92 1593.77 2179.12 1591.22 2176.57C1588.67 2174.02 1586.87 2170.82 1586 2167.32C1585.13 2163.82 1585.23 2160.15 1586.29 2156.71C1582.85 2157.77 1579.18 2157.87 1575.68 2157C1572.18 2156.13 1568.98 2154.33 1566.43 2151.78C1563.88 2149.23 1562.08 2146.03 1561.21 2142.53C1560.34 2139.03 1560.44 2135.36 1561.5 2131.92Z" stroke="#7D7D7D" stroke-opacity="0.05" stroke-width="7" stroke-linecap="round" stroke-linejoin="round"/>
<path d="M1544.15 2164.15V2164.2" stroke="#7D7D7D" stroke-opacity="0.05" stroke-width="7" stroke-linecap="round" stroke-linejoin="round"/>
<path d="M1581.33 2198.85V2198.9" stroke="#7D7D7D" stroke-opacity="0.05" stroke-width="7" stroke-linecap="round" stroke-linejoin="round"/>
<path d="M1561.5 2181.5V2181.55" stroke="#7D7D7D" stroke-opacity="0.05" stroke-width="7" stroke-linecap="round" stroke-linejoin="round"/>
<path d="M1556.54 2206.29V2206.34" stroke="#7D7D7D" stroke-opacity="0.05" stroke-width="7" stroke-linecap="round" stroke-linejoin="round"/>
<path d="M1536.71 2191.42V2191.47" stroke="#7D7D7D" stroke-opacity="0.05" stroke-width="7" stroke-linecap="round" stroke-linejoin="round"/>
<path d="M1247.92 374.292C1247.92 380.867 1250.53 387.173 1255.18 391.823C1259.83 396.472 1266.13 399.084 1272.71 399.084C1279.28 399.084 1285.59 396.472 1290.24 391.823C1294.89 387.173 1297.5 380.867 1297.5 374.292C1297.5 360.607 1285.1 349.501 1272.71 359.417C1260.31 349.501 1247.92 360.607 1247.92 374.292Z" stroke="#7D7D7D" stroke-opacity="0.05" stroke-width="7" stroke-linecap="round" stroke-linejoin="round"/>
<path d="M1297.5 374.292C1297.5 380.867 1300.11 387.173 1304.76 391.823C1309.41 396.472 1315.72 399.084 1322.29 399.084C1328.87 399.084 1335.17 396.472 1339.82 391.823C1344.47 387.173 1347.08 380.867 1347.08 374.292C1347.08 360.607 1334.69 349.501 1322.29 359.417C1309.9 349.501 1297.5 360.607 1297.5 374.292Z" stroke="#7D7D7D" stroke-opacity="0.05" stroke-width="7" stroke-linecap="round" stroke-linejoin="round"/>
<path d="M1272.71 359.416C1288.67 344.987 1293.98 316.031 1297.5 299.916C1305.73 311.717 1321.99 344.541 1322.29 359.416" stroke="#7D7D7D" stroke-opacity="0.05" stroke-width="7" stroke-linecap="round" stroke-linejoin="round"/>
<path d="M1347.08 334.624C1325.81 334.624 1311.68 323.071 1297.5 299.916C1325.81 299.916 1347.08 323.071 1347.08 334.624Z" stroke="#7D7D7D" stroke-opacity="0.05" stroke-width="7" stroke-linecap="round" stroke-linejoin="round"/>
<path d="M264 1062.54H264.051" stroke="#7D7D7D" stroke-opacity="0.05" stroke-width="7" stroke-linecap="round" stroke-linejoin="round"/>
<path d="M244 1082.38H244.051" stroke="#7D7D7D" stroke-opacity="0.05" stroke-width="7" stroke-linecap="round" stroke-linejoin="round"/>
<path d="M269 1087.33H269.051" stroke="#7D7D7D" stroke-opacity="0.05" stroke-width="7" stroke-linecap="round" stroke-linejoin="round"/>
<path d="M199 1087.33L299 1117.08L269 1017.92C252.26 1022.47 237.004 1031.26 224.73 1043.43C212.457 1055.6 203.589 1070.73 199 1087.33Z" stroke="#7D7D7D" stroke-opacity="0.05" stroke-width="7" stroke-linecap="round" stroke-linejoin="round"/>
<path d="M217.55 1092.84C221.607 1079.48 228.936 1067.33 238.882 1057.47C248.828 1047.6 261.082 1040.34 274.55 1036.31" stroke="#7D7D7D" stroke-opacity="0.05" stroke-width="7" stroke-linecap="round" stroke-linejoin="round"/>
<path d="M559.808 839.003L588.517 823.087C597.888 817.881 612.268 831.913 606.913 841.483L590.947 870.29C580.633 888.835 540.917 849.515 559.808 839.003Z" stroke="#7D7D7D" stroke-opacity="0.05" stroke-width="7" stroke-linecap="round" stroke-linejoin="round"/>
<path d="M589.063 821.104L584.104 809.75C582.617 806.13 580.634 803.75 576.667 803.75H559.313C550.834 803.75 546.917 806.229 546.917 816.146C547.333 825.04 550.84 833.51 556.834 840.095" stroke="#7D7D7D" stroke-opacity="0.05" stroke-width="7" stroke-linecap="round" stroke-linejoin="round"/>
<path d="M576.667 803.749C576.667 796.064 577.857 783.916 566.75 783.916C556.834 783.916 554.354 794.676 554.354 803.749" stroke="#7D7D7D" stroke-opacity="0.05" stroke-width="7" stroke-linecap="round" stroke-linejoin="round"/>
<path d="M608.896 840.938L620.25 845.896C623.87 847.383 626.25 849.367 626.25 853.333V870.687C626.25 879.166 623.771 883.083 613.854 883.083C604.96 882.668 596.49 879.16 589.905 873.167" stroke="#7D7D7D" stroke-opacity="0.05" stroke-width="7" stroke-linecap="round" stroke-linejoin="round"/>
<path d="M626.25 853.334C633.935 853.334 646.083 852.144 646.083 863.251C646.083 873.167 635.324 875.646 626.25 875.646" stroke="#7D7D7D" stroke-opacity="0.05" stroke-width="7" stroke-linecap="round" stroke-linejoin="round"/>
<path d="M1819.81 1939L1848.52 1923.09C1857.89 1917.88 1872.27 1931.91 1866.91 1941.48L1850.95 1970.29C1840.63 1988.83 1800.92 1949.52 1819.81 1939Z" stroke="#7D7D7D" stroke-opacity="0.05" stroke-width="7" stroke-linecap="round" stroke-linejoin="round"/>
<path d="M1849.06 1921.1L1844.1 1909.75C1842.62 1906.13 1840.63 1903.75 1836.67 1903.75H1819.31C1810.83 1903.75 1806.92 1906.23 1806.92 1916.15C1807.33 1925.04 1810.84 1933.51 1816.83 1940.09" stroke="#7D7D7D" stroke-opacity="0.05" stroke-width="7" stroke-linecap="round" stroke-linejoin="round"/>
<path d="M1836.67 1903.75C1836.67 1896.06 1837.86 1883.92 1826.75 1883.92C1816.83 1883.92 1814.35 1894.68 1814.35 1903.75" stroke="#7D7D7D" stroke-opacity="0.05" stroke-width="7" stroke-linecap="round" stroke-linejoin="round"/>
<path d="M1868.9 1940.94L1880.25 1945.9C1883.87 1947.38 1886.25 1949.37 1886.25 1953.33V1970.69C1886.25 1979.17 1883.77 1983.08 1873.85 1983.08C1864.96 1982.67 1856.49 1979.16 1849.91 1973.17" stroke="#7D7D7D" stroke-opacity="0.05" stroke-width="7" stroke-linecap="round" stroke-linejoin="round"/>
<path d="M1886.25 1953.33C1893.94 1953.33 1906.08 1952.14 1906.08 1963.25C1906.08 1973.17 1895.32 1975.65 1886.25 1975.65" stroke="#7D7D7D" stroke-opacity="0.05" stroke-width="7" stroke-linecap="round" stroke-linejoin="round"/>
<path d="M1879.62 1230.43C1885.1 1230.43 1889.54 1226.1 1889.54 1220.76C1889.54 1215.43 1885.1 1211.1 1879.62 1211.1C1874.15 1211.1 1869.71 1215.43 1869.71 1220.76C1869.71 1226.1 1874.15 1230.43 1879.62 1230.43Z" stroke="#7D7D7D" stroke-opacity="0.05" stroke-width="7" stroke-linecap="round" stroke-linejoin="round"/>
<path d="M1870.7 1225.11L1849.88 1240.09V1283.58C1849.88 1286.48 1851.86 1288.41 1854.83 1288.41H1934.17C1937.14 1288.41 1939.13 1286.48 1939.13 1283.58V1240.09C1939.13 1230.43 1924.25 1211.1 1904.42 1201.44L1886.57 1214" stroke="#7D7D7D" stroke-opacity="0.05" stroke-width="7" stroke-linecap="round" stroke-linejoin="round"/>
<path d="M1914.33 1249.76H1849.88" stroke="#7D7D7D" stroke-opacity="0.05" stroke-width="7" stroke-linecap="round" stroke-linejoin="round"/>
<path d="M1914.33 1269.08H1849.88" stroke="#7D7D7D" stroke-opacity="0.05" stroke-width="7" stroke-linecap="round" stroke-linejoin="round"/>
<path d="M596.5 1321.83C603.938 1321.83 610.136 1327.08 616.334 1327.08C631.209 1327.08 646.084 1287.42 646.084 1266.49C645.915 1260.07 643.214 1253.98 638.57 1249.54C633.926 1245.1 627.716 1242.67 621.292 1242.79C610.284 1242.79 601.459 1249.93 596.5 1252.71C591.542 1249.93 582.716 1242.79 571.709 1242.79C565.281 1242.66 559.063 1245.08 554.417 1249.52C549.77 1253.96 547.073 1260.07 546.917 1266.49C546.917 1287.42 561.792 1327.08 576.667 1327.08C582.865 1327.08 589.063 1321.83 596.5 1321.83Z" stroke="#7D7D7D" stroke-opacity="0.05" stroke-width="7" stroke-linecap="round" stroke-linejoin="round"/>
<path d="M586.583 1227.92C591.541 1230.4 596.5 1237.83 596.5 1252.71" stroke="#7D7D7D" stroke-opacity="0.05" stroke-width="7" stroke-linecap="round" stroke-linejoin="round"/>
<path d="M1700.5 1529.8C1707.94 1529.8 1714.14 1534.92 1720.33 1534.92C1735.21 1534.92 1750.08 1496.26 1750.08 1475.87C1749.91 1469.61 1747.21 1463.67 1742.57 1459.35C1737.93 1455.02 1731.72 1452.66 1725.29 1452.78C1714.28 1452.78 1705.46 1459.73 1700.5 1462.44C1695.54 1459.73 1686.72 1452.78 1675.71 1452.78C1669.28 1452.65 1663.06 1455 1658.42 1459.33C1653.77 1463.66 1651.07 1469.61 1650.92 1475.87C1650.92 1496.26 1665.79 1534.92 1680.67 1534.92C1686.86 1534.92 1693.06 1529.8 1700.5 1529.8Z" stroke="#7D7D7D" stroke-opacity="0.05" stroke-width="7" stroke-linecap="round" stroke-linejoin="round"/>
<path d="M1690.58 1438.28C1695.54 1440.7 1700.5 1447.94 1700.5 1462.44" stroke="#7D7D7D" stroke-opacity="0.05" stroke-width="7" stroke-linecap="round" stroke-linejoin="round"/>
<path d="M1351.5 1262.92C1341.69 1262.92 1332.11 1265.82 1323.95 1271.27C1315.8 1276.72 1309.44 1284.46 1305.69 1293.52C1301.94 1302.58 1300.96 1312.55 1302.87 1322.17C1304.78 1331.79 1309.51 1340.63 1316.44 1347.56C1323.37 1354.49 1332.21 1359.22 1341.83 1361.13C1351.45 1363.04 1361.41 1362.06 1370.48 1358.31C1379.54 1354.56 1387.28 1348.2 1392.73 1340.05C1398.18 1331.89 1401.08 1322.31 1401.08 1312.5C1397.64 1313.56 1393.97 1313.66 1390.47 1312.79C1386.97 1311.92 1383.77 1310.12 1381.22 1307.57C1378.67 1305.02 1376.87 1301.82 1376 1298.32C1375.13 1294.82 1375.23 1291.15 1376.29 1287.71C1372.85 1288.77 1369.18 1288.87 1365.68 1288C1362.18 1287.13 1358.98 1285.33 1356.43 1282.78C1353.88 1280.23 1352.08 1277.03 1351.21 1273.53C1350.34 1270.03 1350.44 1266.36 1351.5 1262.92Z" stroke="#7D7D7D" stroke-opacity="0.05" stroke-width="7" stroke-linecap="round" stroke-linejoin="round"/>
<path d="M1334.15 1295.15V1295.2" stroke="#7D7D7D" stroke-opacity="0.05" stroke-width="7" stroke-linecap="round" stroke-linejoin="round"/>
<path d="M1371.33 1329.85V1329.9" stroke="#7D7D7D" stroke-opacity="0.05" stroke-width="7" stroke-linecap="round" stroke-linejoin="round"/>
<path d="M1351.5 1312.5V1312.55" stroke="#7D7D7D" stroke-opacity="0.05" stroke-width="7" stroke-linecap="round" stroke-linejoin="round"/>
<path d="M1346.54 1337.29V1337.34" stroke="#7D7D7D" stroke-opacity="0.05" stroke-width="7" stroke-linecap="round" stroke-linejoin="round"/>
<path d="M1326.71 1322.42V1322.47" stroke="#7D7D7D" stroke-opacity="0.05" stroke-width="7" stroke-linecap="round" stroke-linejoin="round"/>
<path d="M927.808 1464.68L956.517 1449.17C965.888 1444.09 980.268 1457.77 974.913 1467.09L958.947 1495.17C948.633 1513.24 908.917 1474.92 927.808 1464.68Z" stroke="#7D7D7D" stroke-opacity="0.05" stroke-width="7" stroke-linecap="round" stroke-linejoin="round"/>
<path d="M957.063 1447.23L952.104 1436.17C950.617 1432.64 948.634 1430.32 944.667 1430.32H927.313C918.834 1430.32 914.917 1432.74 914.917 1442.4C915.333 1451.07 918.84 1459.32 924.834 1465.74" stroke="#7D7D7D" stroke-opacity="0.05" stroke-width="7" stroke-linecap="round" stroke-linejoin="round"/>
<path d="M944.667 1430.32C944.667 1422.83 945.857 1410.99 934.75 1410.99C924.834 1410.99 922.354 1421.48 922.354 1430.32" stroke="#7D7D7D" stroke-opacity="0.05" stroke-width="7" stroke-linecap="round" stroke-linejoin="round"/>
<path d="M976.896 1466.56L988.25 1471.39C991.87 1472.84 994.25 1474.78 994.25 1478.64V1495.55C994.25 1503.82 991.771 1507.63 981.854 1507.63C972.96 1507.23 964.49 1503.81 957.905 1497.97" stroke="#7D7D7D" stroke-opacity="0.05" stroke-width="7" stroke-linecap="round" stroke-linejoin="round"/>
<path d="M994.25 1478.64C1001.94 1478.64 1014.08 1477.48 1014.08 1488.31C1014.08 1497.97 1003.32 1500.39 994.25 1500.39" stroke="#7D7D7D" stroke-opacity="0.05" stroke-width="7" stroke-linecap="round" stroke-linejoin="round"/>
<path d="M315.625 3665.62C321.101 3665.62 325.541 3661.18 325.541 3655.71C325.541 3650.23 321.101 3645.79 315.625 3645.79C310.148 3645.79 305.708 3650.23 305.708 3655.71C305.708 3661.18 310.148 3665.62 315.625 3665.62Z" stroke="#7D7D7D" stroke-opacity="0.05" stroke-width="7" stroke-linecap="round" stroke-linejoin="round"/>
<path d="M306.7 3660.17L285.875 3675.54V3720.17C285.875 3723.14 287.858 3725.13 290.833 3725.13H370.167C373.142 3725.13 375.125 3723.14 375.125 3720.17V3675.54C375.125 3665.63 360.25 3645.79 340.417 3635.88L322.567 3648.77" stroke="#7D7D7D" stroke-opacity="0.05" stroke-width="7" stroke-linecap="round" stroke-linejoin="round"/>
<path d="M350.333 3685.46H285.875" stroke="#7D7D7D" stroke-opacity="0.05" stroke-width="7" stroke-linecap="round" stroke-linejoin="round"/>
<path d="M350.333 3705.29H285.875" stroke="#7D7D7D" stroke-opacity="0.05" stroke-width="7" stroke-linecap="round" stroke-linejoin="round"/>
<path d="M653.5 3511.83C660.938 3511.83 667.136 3517.08 673.334 3517.08C688.209 3517.08 703.084 3477.42 703.084 3456.49C702.915 3450.07 700.214 3443.98 695.57 3439.54C690.926 3435.1 684.716 3432.67 678.292 3432.79C667.284 3432.79 658.459 3439.93 653.5 3442.71C648.542 3439.93 639.716 3432.79 628.709 3432.79C622.281 3432.66 616.063 3435.08 611.417 3439.52C606.77 3443.96 604.073 3450.07 603.917 3456.49C603.917 3477.42 618.792 3517.08 633.667 3517.08C639.865 3517.08 646.063 3511.83 653.5 3511.83Z" stroke="#7D7D7D" stroke-opacity="0.05" stroke-width="7" stroke-linecap="round" stroke-linejoin="round"/>
<path d="M643.583 3417.92C648.541 3420.4 653.5 3427.83 653.5 3442.71" stroke="#7D7D7D" stroke-opacity="0.05" stroke-width="7" stroke-linecap="round" stroke-linejoin="round"/>
<path d="M1757.5 3663.95C1764.94 3663.95 1771.14 3669.08 1777.33 3669.08C1792.21 3669.08 1807.08 3630.42 1807.08 3610.03C1806.91 3603.77 1804.21 3597.83 1799.57 3593.5C1794.93 3589.18 1788.72 3586.82 1782.29 3586.93C1771.28 3586.93 1762.46 3593.89 1757.5 3596.6C1752.54 3593.89 1743.72 3586.93 1732.71 3586.93C1726.28 3586.8 1720.06 3589.16 1715.42 3593.49C1710.77 3597.82 1708.07 3603.77 1707.92 3610.03C1707.92 3630.42 1722.79 3669.08 1737.67 3669.08C1743.86 3669.08 1750.06 3663.95 1757.5 3663.95Z" stroke="#7D7D7D" stroke-opacity="0.05" stroke-width="7" stroke-linecap="round" stroke-linejoin="round"/>
<path d="M1747.58 3572.44C1752.54 3574.85 1757.5 3582.1 1757.5 3596.6" stroke="#7D7D7D" stroke-opacity="0.05" stroke-width="7" stroke-linecap="round" stroke-linejoin="round"/>
<path d="M1408.5 3452.92C1398.69 3452.92 1389.11 3455.82 1380.95 3461.27C1372.8 3466.72 1366.44 3474.46 1362.69 3483.52C1358.94 3492.58 1357.96 3502.55 1359.87 3512.17C1361.78 3521.79 1366.51 3530.63 1373.44 3537.56C1380.37 3544.49 1389.21 3549.22 1398.83 3551.13C1408.45 3553.04 1418.41 3552.06 1427.48 3548.31C1436.54 3544.56 1444.28 3538.2 1449.73 3530.05C1455.18 3521.89 1458.08 3512.31 1458.08 3502.5C1454.64 3503.56 1450.97 3503.66 1447.47 3502.79C1443.97 3501.92 1440.77 3500.12 1438.22 3497.57C1435.67 3495.02 1433.87 3491.82 1433 3488.32C1432.13 3484.82 1432.23 3481.15 1433.29 3477.71C1429.85 3478.77 1426.18 3478.87 1422.68 3478C1419.18 3477.13 1415.98 3475.33 1413.43 3472.78C1410.88 3470.23 1409.08 3467.03 1408.21 3463.53C1407.34 3460.03 1407.44 3456.36 1408.5 3452.92Z" stroke="#7D7D7D" stroke-opacity="0.05" stroke-width="7" stroke-linecap="round" stroke-linejoin="round"/>
<path d="M1391.15 3485.15V3485.2" stroke="#7D7D7D" stroke-opacity="0.05" stroke-width="7" stroke-linecap="round" stroke-linejoin="round"/>
<path d="M1428.33 3519.85V3519.9" stroke="#7D7D7D" stroke-opacity="0.05" stroke-width="7" stroke-linecap="round" stroke-linejoin="round"/>
<path d="M1408.5 3502.5V3502.55" stroke="#7D7D7D" stroke-opacity="0.05" stroke-width="7" stroke-linecap="round" stroke-linejoin="round"/>
<path d="M1403.54 3527.29V3527.34" stroke="#7D7D7D" stroke-opacity="0.05" stroke-width="7" stroke-linecap="round" stroke-linejoin="round"/>
<path d="M1383.71 3512.42V3512.47" stroke="#7D7D7D" stroke-opacity="0.05" stroke-width="7" stroke-linecap="round" stroke-linejoin="round"/>
<path d="M984.808 3598.83L1013.52 3583.32C1022.89 3578.25 1037.27 3591.92 1031.91 3601.25L1015.95 3629.32C1005.63 3647.39 965.917 3609.08 984.808 3598.83Z" stroke="#7D7D7D" stroke-opacity="0.05" stroke-width="7" stroke-linecap="round" stroke-linejoin="round"/>
<path d="M1014.06 3581.39L1009.1 3570.32C1007.62 3566.8 1005.63 3564.48 1001.67 3564.48H984.313C975.834 3564.48 971.917 3566.89 971.917 3576.56C972.333 3585.22 975.84 3593.48 981.834 3599.89" stroke="#7D7D7D" stroke-opacity="0.05" stroke-width="7" stroke-linecap="round" stroke-linejoin="round"/>
<path d="M1001.67 3564.48C1001.67 3556.99 1002.86 3545.15 991.75 3545.15C981.834 3545.15 979.354 3555.63 979.354 3564.48" stroke="#7D7D7D" stroke-opacity="0.05" stroke-width="7" stroke-linecap="round" stroke-linejoin="round"/>
<path d="M1033.9 3600.72L1045.25 3605.55C1048.87 3607 1051.25 3608.93 1051.25 3612.8V3629.71C1051.25 3637.97 1048.77 3641.79 1038.85 3641.79C1029.96 3641.38 1021.49 3637.96 1014.91 3632.12" stroke="#7D7D7D" stroke-opacity="0.05" stroke-width="7" stroke-linecap="round" stroke-linejoin="round"/>
<path d="M1051.25 3612.8C1058.94 3612.8 1071.08 3611.64 1071.08 3622.46C1071.08 3632.13 1060.32 3634.54 1051.25 3634.54" stroke="#7D7D7D" stroke-opacity="0.05" stroke-width="7" stroke-linecap="round" stroke-linejoin="round"/>
<path d="M1848.81 641.003L1877.52 625.087C1886.89 619.881 1901.27 633.913 1895.91 643.483L1879.95 672.29C1869.63 690.835 1829.92 651.515 1848.81 641.003Z" stroke="#7D7D7D" stroke-opacity="0.05" stroke-width="7" stroke-linecap="round" stroke-linejoin="round"/>
<path d="M1878.06 623.104L1873.1 611.75C1871.62 608.13 1869.63 605.75 1865.67 605.75H1848.31C1839.83 605.75 1835.92 608.229 1835.92 618.146C1836.33 627.04 1839.84 635.51 1845.83 642.095" stroke="#7D7D7D" stroke-opacity="0.05" stroke-width="7" stroke-linecap="round" stroke-linejoin="round"/>
<path d="M1865.67 605.749C1865.67 598.064 1866.86 585.916 1855.75 585.916C1845.83 585.916 1843.35 596.676 1843.35 605.749" stroke="#7D7D7D" stroke-opacity="0.05" stroke-width="7" stroke-linecap="round" stroke-linejoin="round"/>
<path d="M1897.9 642.938L1909.25 647.896C1912.87 649.383 1915.25 651.367 1915.25 655.333V672.687C1915.25 681.166 1912.77 685.083 1902.85 685.083C1893.96 684.668 1885.49 681.16 1878.91 675.167" stroke="#7D7D7D" stroke-opacity="0.05" stroke-width="7" stroke-linecap="round" stroke-linejoin="round"/>
<path d="M1915.25 655.334C1922.94 655.334 1935.08 654.144 1935.08 665.251C1935.08 675.167 1924.32 677.646 1915.25 677.646" stroke="#7D7D7D" stroke-opacity="0.05" stroke-width="7" stroke-linecap="round" stroke-linejoin="round"/>
<path d="M860.917 1082.29C860.917 1088.87 863.529 1095.17 868.178 1099.82C872.828 1104.47 879.133 1107.08 885.709 1107.08C892.284 1107.08 898.59 1104.47 903.239 1099.82C907.888 1095.17 910.5 1088.87 910.5 1082.29C910.5 1068.61 898.104 1057.5 885.709 1067.42C873.313 1057.5 860.917 1068.61 860.917 1082.29Z" stroke="#7D7D7D" stroke-opacity="0.05" stroke-width="7" stroke-linecap="round" stroke-linejoin="round"/>
<path d="M910.5 1082.29C910.5 1088.87 913.112 1095.17 917.761 1099.82C922.411 1104.47 928.717 1107.08 935.292 1107.08C941.867 1107.08 948.173 1104.47 952.822 1099.82C957.471 1095.17 960.083 1088.87 960.083 1082.29C960.083 1068.61 947.687 1057.5 935.292 1067.42C922.896 1057.5 910.5 1068.61 910.5 1082.29Z" stroke="#7D7D7D" stroke-opacity="0.05" stroke-width="7" stroke-linecap="round" stroke-linejoin="round"/>
<path d="M885.708 1067.42C901.674 1052.99 906.979 1024.03 910.5 1007.92C918.731 1019.72 934.994 1052.54 935.291 1067.42" stroke="#7D7D7D" stroke-opacity="0.05" stroke-width="7" stroke-linecap="round" stroke-linejoin="round"/>
<path d="M960.083 1042.62C938.812 1042.62 924.681 1031.07 910.5 1007.92C938.812 1007.92 960.083 1031.07 960.083 1042.62Z" stroke="#7D7D7D" stroke-opacity="0.05" stroke-width="7" stroke-linecap="round" stroke-linejoin="round"/>
<path d="M1759 3266.54H1759.05" stroke="#7D7D7D" stroke-opacity="0.05" stroke-width="7" stroke-linecap="round" stroke-linejoin="round"/>
<path d="M1739 3286.38H1739.05" stroke="#7D7D7D" stroke-opacity="0.05" stroke-width="7" stroke-linecap="round" stroke-linejoin="round"/>
<path d="M1764 3291.33H1764.05" stroke="#7D7D7D" stroke-opacity="0.05" stroke-width="7" stroke-linecap="round" stroke-linejoin="round"/>
<path d="M1694 3291.33L1794 3321.08L1764 3221.92C1747.26 3226.47 1732 3235.26 1719.73 3247.43C1707.46 3259.6 1698.59 3274.73 1694 3291.33Z" stroke="#7D7D7D" stroke-opacity="0.05" stroke-width="7" stroke-linecap="round" stroke-linejoin="round"/>
<path d="M1712.55 3296.84C1716.61 3283.48 1723.94 3271.33 1733.88 3261.47C1743.83 3251.6 1756.08 3244.34 1769.55 3240.31" stroke="#7D7D7D" stroke-opacity="0.05" stroke-width="7" stroke-linecap="round" stroke-linejoin="round"/>
<path d="M1177 2441.54H1177.05" stroke="#7D7D7D" stroke-opacity="0.05" stroke-width="7" stroke-linecap="round" stroke-linejoin="round"/>
<path d="M1157 2461.38H1157.05" stroke="#7D7D7D" stroke-opacity="0.05" stroke-width="7" stroke-linecap="round" stroke-linejoin="round"/>
<path d="M1182 2466.33H1182.05" stroke="#7D7D7D" stroke-opacity="0.05" stroke-width="7" stroke-linecap="round" stroke-linejoin="round"/>
<path d="M1112 2466.33L1212 2496.08L1182 2396.92C1165.26 2401.47 1150 2410.26 1137.73 2422.43C1125.46 2434.6 1116.59 2449.73 1112 2466.33Z" stroke="#7D7D7D" stroke-opacity="0.05" stroke-width="7" stroke-linecap="round" stroke-linejoin="round"/>
<path d="M1130.55 2471.84C1134.61 2458.48 1141.94 2446.33 1151.88 2436.47C1161.83 2426.6 1174.08 2419.34 1187.55 2415.31" stroke="#7D7D7D" stroke-opacity="0.05" stroke-width="7" stroke-linecap="round" stroke-linejoin="round"/>
<path d="M244.5 2893.83C251.938 2893.83 258.136 2899.08 264.334 2899.08C279.209 2899.08 294.084 2859.42 294.084 2838.49C293.915 2832.07 291.214 2825.98 286.57 2821.54C281.926 2817.1 275.716 2814.67 269.292 2814.79C258.284 2814.79 249.459 2821.93 244.5 2824.71C239.542 2821.93 230.716 2814.79 219.709 2814.79C213.281 2814.66 207.063 2817.08 202.417 2821.52C197.77 2825.96 195.073 2832.07 194.917 2838.49C194.917 2859.42 209.792 2899.08 224.667 2899.08C230.865 2899.08 237.063 2893.83 244.5 2893.83Z" stroke="#7D7D7D" stroke-opacity="0.05" stroke-width="7" stroke-linecap="round" stroke-linejoin="round"/>
<path d="M234.583 2799.92C239.541 2802.4 244.5 2809.83 244.5 2824.71" stroke="#7D7D7D" stroke-opacity="0.05" stroke-width="7" stroke-linecap="round" stroke-linejoin="round"/>
<path d="M1348.5 3141.83C1355.94 3141.83 1362.14 3147.08 1368.33 3147.08C1383.21 3147.08 1398.08 3107.42 1398.08 3086.49C1397.91 3080.07 1395.21 3073.98 1390.57 3069.54C1385.93 3065.1 1379.72 3062.67 1373.29 3062.79C1362.28 3062.79 1353.46 3069.93 1348.5 3072.71C1343.54 3069.93 1334.72 3062.79 1323.71 3062.79C1317.28 3062.66 1311.06 3065.08 1306.42 3069.52C1301.77 3073.96 1299.07 3080.07 1298.92 3086.49C1298.92 3107.42 1313.79 3147.08 1328.67 3147.08C1334.86 3147.08 1341.06 3141.83 1348.5 3141.83Z" stroke="#7D7D7D" stroke-opacity="0.05" stroke-width="7" stroke-linecap="round" stroke-linejoin="round"/>
<path d="M1338.58 3047.92C1343.54 3050.4 1348.5 3057.83 1348.5 3072.71" stroke="#7D7D7D" stroke-opacity="0.05" stroke-width="7" stroke-linecap="round" stroke-linejoin="round"/>
<path d="M999.5 2834.92C989.694 2834.92 980.107 2837.82 971.953 2843.27C963.799 2848.72 957.444 2856.46 953.691 2865.52C949.938 2874.58 948.957 2884.55 950.87 2894.17C952.783 2903.79 957.505 2912.63 964.44 2919.56C971.374 2926.49 980.209 2931.22 989.827 2933.13C999.445 2935.04 1009.41 2934.06 1018.48 2930.31C1027.54 2926.56 1035.28 2920.2 1040.73 2912.05C1046.18 2903.89 1049.08 2894.31 1049.08 2884.5C1045.64 2885.56 1041.97 2885.66 1038.47 2884.79C1034.97 2883.92 1031.77 2882.12 1029.22 2879.57C1026.67 2877.02 1024.87 2873.82 1024 2870.32C1023.13 2866.82 1023.23 2863.15 1024.29 2859.71C1020.85 2860.77 1017.18 2860.87 1013.68 2860C1010.18 2859.13 1006.98 2857.33 1004.43 2854.78C1001.88 2852.23 1000.08 2849.03 999.206 2845.53C998.338 2842.03 998.439 2838.36 999.5 2834.92Z" stroke="#7D7D7D" stroke-opacity="0.05" stroke-width="7" stroke-linecap="round" stroke-linejoin="round"/>
<path d="M982.146 2867.15V2867.2" stroke="#7D7D7D" stroke-opacity="0.05" stroke-width="7" stroke-linecap="round" stroke-linejoin="round"/>
<path d="M1019.33 2901.85V2901.9" stroke="#7D7D7D" stroke-opacity="0.05" stroke-width="7" stroke-linecap="round" stroke-linejoin="round"/>
<path d="M999.5 2884.5V2884.55" stroke="#7D7D7D" stroke-opacity="0.05" stroke-width="7" stroke-linecap="round" stroke-linejoin="round"/>
<path d="M994.542 2909.29V2909.34" stroke="#7D7D7D" stroke-opacity="0.05" stroke-width="7" stroke-linecap="round" stroke-linejoin="round"/>
<path d="M974.708 2894.42V2894.47" stroke="#7D7D7D" stroke-opacity="0.05" stroke-width="7" stroke-linecap="round" stroke-linejoin="round"/>
<path d="M280 3214.43H280.051" stroke="#7D7D7D" stroke-opacity="0.05" stroke-width="7" stroke-linecap="round" stroke-linejoin="round"/>
<path d="M260 3233.76H260.051" stroke="#7D7D7D" stroke-opacity="0.05" stroke-width="7" stroke-linecap="round" stroke-linejoin="round"/>
<path d="M285 3238.59H285.051" stroke="#7D7D7D" stroke-opacity="0.05" stroke-width="7" stroke-linecap="round" stroke-linejoin="round"/>
<path d="M215 3238.59L315 3267.58L285 3170.94C268.26 3175.38 253.004 3183.95 240.73 3195.81C228.457 3207.67 219.589 3222.41 215 3238.59Z" stroke="#7D7D7D" stroke-opacity="0.05" stroke-width="7" stroke-linecap="round" stroke-linejoin="round"/>
<path d="M233.55 3243.95C237.607 3230.94 244.936 3219.1 254.882 3209.48C264.828 3199.87 277.082 3192.79 290.55 3188.87" stroke="#7D7D7D" stroke-opacity="0.05" stroke-width="7" stroke-linecap="round" stroke-linejoin="round"/>
<path d="M575.808 3075L604.517 3059.09C613.888 3053.88 628.268 3067.91 622.913 3077.48L606.947 3106.29C596.633 3124.83 556.917 3085.52 575.808 3075Z" stroke="#7D7D7D" stroke-opacity="0.05" stroke-width="7" stroke-linecap="round" stroke-linejoin="round"/>
<path d="M605.063 3057.1L600.104 3045.75C598.617 3042.13 596.634 3039.75 592.667 3039.75H575.313C566.834 3039.75 562.917 3042.23 562.917 3052.15C563.333 3061.04 566.84 3069.51 572.834 3076.09" stroke="#7D7D7D" stroke-opacity="0.05" stroke-width="7" stroke-linecap="round" stroke-linejoin="round"/>
<path d="M592.667 3039.75C592.667 3032.06 593.857 3019.92 582.75 3019.92C572.834 3019.92 570.354 3030.68 570.354 3039.75" stroke="#7D7D7D" stroke-opacity="0.05" stroke-width="7" stroke-linecap="round" stroke-linejoin="round"/>
<path d="M624.896 3076.94L636.25 3081.9C639.87 3083.38 642.25 3085.37 642.25 3089.33V3106.69C642.25 3115.17 639.771 3119.08 629.854 3119.08C620.96 3118.67 612.49 3115.16 605.905 3109.17" stroke="#7D7D7D" stroke-opacity="0.05" stroke-width="7" stroke-linecap="round" stroke-linejoin="round"/>
<path d="M642.25 3089.33C649.935 3089.33 662.083 3088.14 662.083 3099.25C662.083 3109.17 651.324 3111.65 642.25 3111.65" stroke="#7D7D7D" stroke-opacity="0.05" stroke-width="7" stroke-linecap="round" stroke-linejoin="round"/>
<path d="M1864.81 2803.64L1893.52 2788.13C1902.89 2783.06 1917.27 2796.73 1911.91 2806.06L1895.95 2834.13C1885.63 2852.2 1845.92 2813.88 1864.81 2803.64Z" stroke="#7D7D7D" stroke-opacity="0.05" stroke-width="7" stroke-linecap="round" stroke-linejoin="round"/>
<path d="M1894.06 2786.2L1889.1 2775.13C1887.62 2771.6 1885.63 2769.29 1881.67 2769.29H1864.31C1855.83 2769.29 1851.92 2771.7 1851.92 2781.36C1852.33 2790.03 1855.84 2798.29 1861.83 2804.7" stroke="#7D7D7D" stroke-opacity="0.05" stroke-width="7" stroke-linecap="round" stroke-linejoin="round"/>
<path d="M1881.67 2769.28C1881.67 2761.8 1882.86 2749.96 1871.75 2749.96C1861.83 2749.96 1859.35 2760.44 1859.35 2769.28" stroke="#7D7D7D" stroke-opacity="0.05" stroke-width="7" stroke-linecap="round" stroke-linejoin="round"/>
<path d="M1913.9 2805.53L1925.25 2810.36C1928.87 2811.81 1931.25 2813.74 1931.25 2817.61V2834.52C1931.25 2842.78 1928.77 2846.6 1918.85 2846.6C1909.96 2846.19 1901.49 2842.77 1894.91 2836.93" stroke="#7D7D7D" stroke-opacity="0.05" stroke-width="7" stroke-linecap="round" stroke-linejoin="round"/>
<path d="M1931.25 2817.6C1938.94 2817.6 1951.08 2816.44 1951.08 2827.27C1951.08 2836.93 1940.32 2839.35 1931.25 2839.35" stroke="#7D7D7D" stroke-opacity="0.05" stroke-width="7" stroke-linecap="round" stroke-linejoin="round"/>
<path d="M876.917 3233.68C876.917 3240.08 879.529 3246.23 884.178 3250.76C888.828 3255.29 895.133 3257.83 901.709 3257.83C908.284 3257.83 914.59 3255.29 919.239 3250.76C923.888 3246.23 926.5 3240.08 926.5 3233.68C926.5 3220.34 914.104 3209.52 901.709 3219.18C889.313 3209.52 876.917 3220.34 876.917 3233.68Z" stroke="#7D7D7D" stroke-opacity="0.05" stroke-width="7" stroke-linecap="round" stroke-linejoin="round"/>
<path d="M926.5 3233.68C926.5 3240.08 929.112 3246.23 933.761 3250.76C938.411 3255.29 944.717 3257.83 951.292 3257.83C957.867 3257.83 964.173 3255.29 968.822 3250.76C973.471 3246.23 976.083 3240.08 976.083 3233.68C976.083 3220.34 963.687 3209.52 951.292 3219.18C938.896 3209.52 926.5 3220.34 926.5 3233.68Z" stroke="#7D7D7D" stroke-opacity="0.05" stroke-width="7" stroke-linecap="round" stroke-linejoin="round"/>
<path d="M901.708 3219.18C917.674 3205.12 922.979 3176.9 926.5 3161.2C934.731 3172.7 950.994 3204.68 951.291 3219.18" stroke="#7D7D7D" stroke-opacity="0.05" stroke-width="7" stroke-linecap="round" stroke-linejoin="round"/>
<path d="M976.083 3195.02C954.812 3195.02 940.681 3183.76 926.5 3161.2C954.812 3161.2 976.083 3183.76 976.083 3195.02Z" stroke="#7D7D7D" stroke-opacity="0.05" stroke-width="7" stroke-linecap="round" stroke-linejoin="round"/>
<path d="M1713 2398.61C1713 2405.02 1715.61 2411.16 1720.26 2415.69C1724.91 2420.23 1731.22 2422.77 1737.79 2422.77C1744.37 2422.77 1750.67 2420.23 1755.32 2415.69C1759.97 2411.16 1762.58 2405.02 1762.58 2398.61C1762.58 2385.28 1750.19 2374.45 1737.79 2384.12C1725.4 2374.45 1713 2385.28 1713 2398.61Z" stroke="#7D7D7D" stroke-opacity="0.05" stroke-width="7" stroke-linecap="round" stroke-linejoin="round"/>
<path d="M1762.58 2398.61C1762.58 2405.02 1765.19 2411.16 1769.84 2415.69C1774.49 2420.23 1780.8 2422.77 1787.37 2422.77C1793.95 2422.77 1800.26 2420.23 1804.91 2415.69C1809.55 2411.16 1812.17 2405.02 1812.17 2398.61C1812.17 2385.28 1799.77 2374.45 1787.37 2384.12C1774.98 2374.45 1762.58 2385.28 1762.58 2398.61Z" stroke="#7D7D7D" stroke-opacity="0.05" stroke-width="7" stroke-linecap="round" stroke-linejoin="round"/>
<path d="M1737.79 2384.11C1753.76 2370.05 1759.06 2341.83 1762.58 2326.13C1770.81 2337.63 1787.08 2369.62 1787.37 2384.11" stroke="#7D7D7D" stroke-opacity="0.05" stroke-width="7" stroke-linecap="round" stroke-linejoin="round"/>
<path d="M1812.17 2359.95C1790.9 2359.95 1776.76 2348.7 1762.58 2326.13C1790.9 2326.13 1812.17 2348.7 1812.17 2359.95Z" stroke="#7D7D7D" stroke-opacity="0.05" stroke-width="7" stroke-linecap="round" stroke-linejoin="round"/>
<path d="M1795 1820.89H1795.05" stroke="#7D7D7D" stroke-opacity="0.05" stroke-width="7" stroke-linecap="round" stroke-linejoin="round"/>
<path d="M681 1719.46H681.051" stroke="#7D7D7D" stroke-opacity="0.05" stroke-width="7" stroke-linecap="round" stroke-linejoin="round"/>
<path d="M706 1724.3H706.051" stroke="#7D7D7D" stroke-opacity="0.05" stroke-width="7" stroke-linecap="round" stroke-linejoin="round"/>
<path d="M636 1724.3L736 1753.29L706 1656.65C689.26 1661.09 674.004 1669.65 661.73 1681.52C649.457 1693.38 640.589 1708.12 636 1724.3Z" stroke="#7D7D7D" stroke-opacity="0.05" stroke-width="7" stroke-linecap="round" stroke-linejoin="round"/>
<path d="M654.55 1729.66C658.607 1716.65 665.936 1704.8 675.882 1695.19C685.828 1685.58 698.082 1678.5 711.55 1674.58" stroke="#7D7D7D" stroke-opacity="0.05" stroke-width="7" stroke-linecap="round" stroke-linejoin="round"/>
<path d="M292.5 2002.83C299.938 2002.83 306.136 2008.08 312.334 2008.08C327.209 2008.08 342.084 1968.42 342.084 1947.49C341.915 1941.07 339.214 1934.98 334.57 1930.54C329.926 1926.1 323.716 1923.67 317.292 1923.79C306.284 1923.79 297.459 1930.93 292.5 1933.71C287.542 1930.93 278.716 1923.79 267.709 1923.79C261.281 1923.66 255.063 1926.08 250.417 1930.52C245.77 1934.96 243.073 1941.07 242.917 1947.49C242.917 1968.42 257.792 2008.08 272.667 2008.08C278.865 2008.08 285.063 2002.83 292.5 2002.83Z" stroke="#7D7D7D" stroke-opacity="0.05" stroke-width="7" stroke-linecap="round" stroke-linejoin="round"/>
<path d="M282.583 1908.92C287.541 1911.4 292.5 1918.83 292.5 1933.71" stroke="#7D7D7D" stroke-opacity="0.05" stroke-width="7" stroke-linecap="round" stroke-linejoin="round"/>
<path d="M599.808 2227L628.517 2211.09C637.888 2205.88 652.268 2219.91 646.913 2229.48L630.947 2258.29C620.633 2276.83 580.917 2237.52 599.808 2227Z" stroke="#7D7D7D" stroke-opacity="0.05" stroke-width="7" stroke-linecap="round" stroke-linejoin="round"/>
<path d="M629.063 2209.1L624.104 2197.75C622.617 2194.13 620.634 2191.75 616.667 2191.75H599.313C590.834 2191.75 586.917 2194.23 586.917 2204.15C587.333 2213.04 590.84 2221.51 596.834 2228.09" stroke="#7D7D7D" stroke-opacity="0.05" stroke-width="7" stroke-linecap="round" stroke-linejoin="round"/>
<path d="M616.667 2191.75C616.667 2184.06 617.857 2171.92 606.75 2171.92C596.834 2171.92 594.354 2182.68 594.354 2191.75" stroke="#7D7D7D" stroke-opacity="0.05" stroke-width="7" stroke-linecap="round" stroke-linejoin="round"/>
<path d="M648.896 2228.94L660.25 2233.9C663.87 2235.38 666.25 2237.37 666.25 2241.33V2258.69C666.25 2267.17 663.771 2271.08 653.854 2271.08C644.96 2270.67 636.49 2267.16 629.905 2261.17" stroke="#7D7D7D" stroke-opacity="0.05" stroke-width="7" stroke-linecap="round" stroke-linejoin="round"/>
<path d="M666.25 2241.33C673.935 2241.33 686.083 2240.14 686.083 2251.25C686.083 2261.17 675.324 2263.65 666.25 2263.65" stroke="#7D7D7D" stroke-opacity="0.05" stroke-width="7" stroke-linecap="round" stroke-linejoin="round"/>
<path d="M1320.92 1764.29C1320.92 1770.87 1323.53 1777.17 1328.18 1781.82C1332.83 1786.47 1339.13 1789.08 1345.71 1789.08C1352.28 1789.08 1358.59 1786.47 1363.24 1781.82C1367.89 1777.17 1370.5 1770.87 1370.5 1764.29C1370.5 1750.61 1358.1 1739.5 1345.71 1749.42C1333.31 1739.5 1320.92 1750.61 1320.92 1764.29Z" stroke="#7D7D7D" stroke-opacity="0.05" stroke-width="7" stroke-linecap="round" stroke-linejoin="round"/>
<path d="M1370.5 1764.29C1370.5 1770.87 1373.11 1777.17 1377.76 1781.82C1382.41 1786.47 1388.72 1789.08 1395.29 1789.08C1401.87 1789.08 1408.17 1786.47 1412.82 1781.82C1417.47 1777.17 1420.08 1770.87 1420.08 1764.29C1420.08 1750.61 1407.69 1739.5 1395.29 1749.42C1382.9 1739.5 1370.5 1750.61 1370.5 1764.29Z" stroke="#7D7D7D" stroke-opacity="0.05" stroke-width="7" stroke-linecap="round" stroke-linejoin="round"/>
<path d="M1345.71 1749.42C1361.67 1734.99 1366.98 1706.03 1370.5 1689.92C1378.73 1701.72 1394.99 1734.54 1395.29 1749.42" stroke="#7D7D7D" stroke-opacity="0.05" stroke-width="7" stroke-linecap="round" stroke-linejoin="round"/>
<path d="M1420.08 1724.62C1398.81 1724.62 1384.68 1713.07 1370.5 1689.92C1398.81 1689.92 1420.08 1713.07 1420.08 1724.62Z" stroke="#7D7D7D" stroke-opacity="0.05" stroke-width="7" stroke-linecap="round" stroke-linejoin="round"/>
<path d="M234.917 2461.29C234.917 2467.87 237.529 2474.17 242.178 2478.82C246.828 2483.47 253.133 2486.08 259.709 2486.08C266.284 2486.08 272.59 2483.47 277.239 2478.82C281.888 2474.17 284.5 2467.87 284.5 2461.29C284.5 2447.61 272.104 2436.5 259.709 2446.42C247.313 2436.5 234.917 2447.61 234.917 2461.29Z" stroke="#7D7D7D" stroke-opacity="0.05" stroke-width="7" stroke-linecap="round" stroke-linejoin="round"/>
<path d="M284.5 2461.29C284.5 2467.87 287.112 2474.17 291.761 2478.82C296.411 2483.47 302.717 2486.08 309.292 2486.08C315.867 2486.08 322.173 2483.47 326.822 2478.82C331.471 2474.17 334.083 2467.87 334.083 2461.29C334.083 2447.61 321.687 2436.5 309.292 2446.42C296.896 2436.5 284.5 2447.61 284.5 2461.29Z" stroke="#7D7D7D" stroke-opacity="0.05" stroke-width="7" stroke-linecap="round" stroke-linejoin="round"/>
<path d="M259.708 2446.42C275.674 2431.99 280.979 2403.03 284.5 2386.92C292.731 2398.72 308.994 2431.54 309.291 2446.42" stroke="#7D7D7D" stroke-opacity="0.05" stroke-width="7" stroke-linecap="round" stroke-linejoin="round"/>
<path d="M334.083 2421.62C312.812 2421.62 298.681 2410.07 284.5 2386.92C312.812 2386.92 334.083 2410.07 334.083 2421.62Z" stroke="#7D7D7D" stroke-opacity="0.05" stroke-width="7" stroke-linecap="round" stroke-linejoin="round"/>
<path d="M1527.62 2834.62C1533.1 2834.62 1537.54 2830.18 1537.54 2824.71C1537.54 2819.23 1533.1 2814.79 1527.62 2814.79C1522.15 2814.79 1517.71 2819.23 1517.71 2824.71C1517.71 2830.18 1522.15 2834.62 1527.62 2834.62Z" stroke="#7D7D7D" stroke-opacity="0.05" stroke-width="7" stroke-linecap="round" stroke-linejoin="round"/>
<path d="M1518.7 2829.17L1497.88 2844.54V2889.17C1497.88 2892.14 1499.86 2894.13 1502.83 2894.13H1582.17C1585.14 2894.13 1587.13 2892.14 1587.13 2889.17V2844.54C1587.13 2834.63 1572.25 2814.79 1552.42 2804.88L1534.57 2817.77" stroke="#7D7D7D" stroke-opacity="0.05" stroke-width="7" stroke-linecap="round" stroke-linejoin="round"/>
<path d="M1562.33 2854.46H1497.88" stroke="#7D7D7D" stroke-opacity="0.05" stroke-width="7" stroke-linecap="round" stroke-linejoin="round"/>
<path d="M1562.33 2874.29H1497.88" stroke="#7D7D7D" stroke-opacity="0.05" stroke-width="7" stroke-linecap="round" stroke-linejoin="round"/>
<path d="M661.625 2630.62C667.101 2630.62 671.541 2626.18 671.541 2620.71C671.541 2615.23 667.101 2610.79 661.625 2610.79C656.148 2610.79 651.708 2615.23 651.708 2620.71C651.708 2626.18 656.148 2630.62 661.625 2630.62Z" stroke="#7D7D7D" stroke-opacity="0.05" stroke-width="7" stroke-linecap="round" stroke-linejoin="round"/>
<path d="M652.7 2625.17L631.875 2640.54V2685.17C631.875 2688.14 633.858 2690.13 636.833 2690.13H716.167C719.142 2690.13 721.125 2688.14 721.125 2685.17V2640.54C721.125 2630.63 706.25 2610.79 686.417 2600.88L668.567 2613.77" stroke="#7D7D7D" stroke-opacity="0.05" stroke-width="7" stroke-linecap="round" stroke-linejoin="round"/>
<path d="M696.333 2650.46H631.875" stroke="#7D7D7D" stroke-opacity="0.05" stroke-width="7" stroke-linecap="round" stroke-linejoin="round"/>
<path d="M696.333 2670.29H631.875" stroke="#7D7D7D" stroke-opacity="0.05" stroke-width="7" stroke-linecap="round" stroke-linejoin="round"/>
</svg>
