<svg width="1700" height="1700" viewBox="0 0 1700 1700" fill="none" xmlns="http://www.w3.org/2000/svg">
<g clip-path="url(#clip0_84_326)">
<circle cx="850" cy="850" r="850" fill="#317302"/>
<path d="M841.84 667.734L841.936 667.829C803.907 705.859 781.132 756.027 778.622 807.299C776.113 858.57 794.073 906.745 828.553 941.225C863.033 975.705 911.208 993.665 962.479 991.156C1013.75 988.646 1063.92 965.871 1101.95 927.842L1102.05 927.943L1341.05 688.941C1384.79 645.203 1455.71 645.203 1499.44 688.941C1543.18 732.68 1543.18 803.594 1499.44 847.333L1233.57 1113.21C1225.19 1121.59 1215.81 1128.36 1205.81 1133.53C1130.66 1189.42 1041.58 1222.4 950.942 1226.84C877.353 1230.44 806.64 1215.04 745.164 1183.01L568.892 1359.28C525.153 1403.02 454.239 1403.02 410.5 1359.28C366.761 1315.54 366.761 1244.63 410.5 1200.89L586.772 1024.61C554.741 963.139 539.34 892.425 542.942 818.836C547.386 728.065 580.451 638.853 636.492 563.634C641.648 553.712 648.39 544.4 656.717 536.074L681.448 511.342C682.111 510.672 682.776 510.003 683.443 509.336L683.448 509.342L922.589 270.201C966.328 226.463 1037.24 226.463 1080.98 270.201C1124.72 313.94 1124.72 384.855 1080.98 428.593L841.84 667.734Z" fill="white"/>
<path d="M876.483 893.295C832.745 849.556 832.745 778.642 876.483 734.903L1131.75 479.638C1175.49 435.899 1246.4 435.899 1290.14 479.638C1333.88 523.376 1333.88 594.291 1290.14 638.03L1034.88 893.295C991.136 937.034 920.222 937.034 876.483 893.295Z" fill="white"/>
</g>
<defs>
<clipPath id="clip0_84_326">
<rect width="1700" height="1700" fill="white"/>
</clipPath>
</defs>
</svg>
