<svg width="1700" height="1700" viewBox="0 0 1700 1700" fill="none" xmlns="http://www.w3.org/2000/svg">
<g clip-path="url(#clip0_90_1043)">
<path fill-rule="evenodd" clip-rule="evenodd" d="M850 1700C1319.44 1700 1700 1319.44 1700 850C1700 380.558 1319.44 0 850 0C380.558 0 0 380.558 0 850C0 1319.44 380.558 1700 850 1700ZM841.936 667.829L841.84 667.734L1080.98 428.593C1124.72 384.855 1124.72 313.94 1080.98 270.201C1037.24 226.463 966.327 226.463 922.589 270.201L683.448 509.342L683.443 509.336C682.776 510.003 682.111 510.672 681.448 511.342L656.716 536.074C648.39 544.4 641.648 553.712 636.492 563.634C580.451 638.853 547.385 728.065 542.942 818.836C539.34 892.425 554.74 963.139 586.771 1024.61L410.5 1200.89C366.761 1244.63 366.761 1315.54 410.5 1359.28C454.238 1403.02 525.153 1403.02 568.892 1359.28L745.163 1183.01C806.639 1215.04 877.353 1230.44 950.942 1226.84C1041.58 1222.4 1130.66 1189.42 1205.81 1133.53C1215.81 1128.36 1225.19 1121.59 1233.57 1113.21L1499.44 847.333C1543.18 803.594 1543.18 732.68 1499.44 688.941C1455.71 645.203 1384.79 645.203 1341.05 688.941L1102.05 927.943L1101.95 927.842C1063.92 965.871 1013.75 988.646 962.479 991.156C911.207 993.665 863.033 975.705 828.553 941.225C794.073 906.745 776.113 858.57 778.622 807.299C781.132 756.027 803.907 705.859 841.936 667.829ZM876.483 734.903C832.744 778.642 832.744 849.556 876.483 893.295C920.222 937.034 991.136 937.034 1034.88 893.295L1290.14 638.03C1333.88 594.291 1333.88 523.376 1290.14 479.638C1246.4 435.899 1175.49 435.899 1131.75 479.638L876.483 734.903Z" fill="white"/>
</g>
<defs>
<clipPath id="clip0_90_1043">
<rect width="1700" height="1700" fill="white"/>
</clipPath>
</defs>
</svg>
