<svg width="7114" height="1700" viewBox="0 0 7114 1700" fill="none" xmlns="http://www.w3.org/2000/svg">
<g clip-path="url(#clip0_90_1037)">
<path d="M2010.56 1398V357.56H2211.84V1398H2010.56ZM2158.56 1398V1220.4H2734.28V1398H2158.56ZM2158.56 952.52V780.84H2682.48V952.52H2158.56ZM2158.56 535.16V357.56H2726.88V535.16H2158.56ZM3125.83 1414.28C3085.38 1414.28 3045.42 1408.85 3005.95 1398C2967.47 1387.15 2931.95 1372.35 2899.39 1353.6C2866.83 1333.87 2838.71 1310.19 2815.03 1282.56L2930.47 1165.64C2955.14 1193.27 2983.75 1213.99 3016.31 1227.8C3048.87 1241.61 3084.89 1248.52 3124.35 1248.52C3155.93 1248.52 3179.61 1244.08 3195.39 1235.2C3212.17 1226.32 3220.55 1213 3220.55 1195.24C3220.55 1175.51 3211.67 1160.21 3193.91 1149.36C3177.14 1138.51 3154.94 1129.63 3127.31 1122.72C3099.69 1114.83 3070.58 1106.44 3039.99 1097.56C3010.39 1087.69 2981.78 1075.36 2954.15 1060.56C2926.53 1044.77 2903.83 1023.56 2886.07 996.92C2869.3 969.293 2860.91 933.773 2860.91 890.36C2860.91 844.973 2871.77 805.507 2893.47 771.96C2916.17 738.413 2948.23 712.267 2989.67 693.52C3031.11 674.773 3079.95 665.4 3136.19 665.4C3195.39 665.4 3248.67 675.76 3296.03 696.48C3344.38 717.2 3384.34 748.28 3415.91 789.72L3298.99 906.64C3277.29 880 3252.62 860.76 3224.99 848.92C3198.35 837.08 3169.25 831.16 3137.67 831.16C3109.06 831.16 3086.86 835.6 3071.07 844.48C3056.27 853.36 3048.87 865.693 3048.87 881.48C3048.87 899.24 3057.26 913.053 3074.03 922.92C3091.79 932.787 3114.49 941.667 3142.11 949.56C3169.74 956.467 3198.35 964.853 3227.95 974.72C3258.54 983.6 3287.15 996.427 3313.79 1013.2C3341.42 1029.97 3363.62 1052.17 3380.39 1079.8C3398.15 1107.43 3407.03 1142.95 3407.03 1186.36C3407.03 1256.41 3381.87 1312.16 3331.55 1353.6C3281.23 1394.05 3212.66 1414.28 3125.83 1414.28ZM3783.45 1414.28C3743 1414.28 3703.04 1408.85 3663.57 1398C3625.09 1387.15 3589.57 1372.35 3557.01 1353.6C3524.45 1333.87 3496.33 1310.19 3472.65 1282.56L3588.09 1165.64C3612.76 1193.27 3641.37 1213.99 3673.93 1227.8C3706.49 1241.61 3742.5 1248.52 3781.97 1248.52C3813.54 1248.52 3837.22 1244.08 3853.01 1235.2C3869.78 1226.32 3878.17 1213 3878.17 1195.24C3878.17 1175.51 3869.29 1160.21 3851.53 1149.36C3834.76 1138.51 3812.56 1129.63 3784.93 1122.72C3757.3 1114.83 3728.2 1106.44 3697.61 1097.56C3668.01 1087.69 3639.4 1075.36 3611.77 1060.56C3584.14 1044.77 3561.45 1023.56 3543.69 996.92C3526.92 969.293 3518.53 933.773 3518.53 890.36C3518.53 844.973 3529.38 805.507 3551.09 771.96C3573.78 738.413 3605.85 712.267 3647.29 693.52C3688.73 674.773 3737.57 665.4 3793.81 665.4C3853.01 665.4 3906.29 675.76 3953.65 696.48C4002 717.2 4041.96 748.28 4073.53 789.72L3956.61 906.64C3934.9 880 3910.24 860.76 3882.61 848.92C3855.97 837.08 3826.86 831.16 3795.29 831.16C3766.68 831.16 3744.48 835.6 3728.69 844.48C3713.89 853.36 3706.49 865.693 3706.49 881.48C3706.49 899.24 3714.88 913.053 3731.65 922.92C3749.41 932.787 3772.1 941.667 3799.73 949.56C3827.36 956.467 3855.97 964.853 3885.57 974.72C3916.16 983.6 3944.77 996.427 3971.41 1013.2C3999.04 1029.97 4021.24 1052.17 4038.01 1079.8C4055.77 1107.43 4064.65 1142.95 4064.65 1186.36C4064.65 1256.41 4039.49 1312.16 3989.17 1353.6C3938.85 1394.05 3870.28 1414.28 3783.45 1414.28ZM4537.27 1412.8C4462.28 1412.8 4395.68 1397.01 4337.47 1365.44C4279.25 1332.88 4232.88 1288.48 4198.35 1232.24C4164.8 1176 4148.03 1111.87 4148.03 1039.84C4148.03 968.8 4164.31 905.653 4196.87 850.4C4230.41 794.16 4275.8 749.76 4333.03 717.2C4390.25 683.653 4453.89 666.88 4523.95 666.88C4593.01 666.88 4653.69 682.667 4705.99 714.24C4759.27 744.827 4800.71 787.253 4830.31 841.52C4860.89 894.8 4876.19 955.48 4876.19 1023.56C4876.19 1036.39 4875.2 1049.71 4873.23 1063.52C4872.24 1076.35 4869.77 1091.15 4865.83 1107.92L4264.95 1109.4V964.36L4775.55 962.88L4697.11 1023.56C4695.13 981.133 4687.24 945.613 4673.43 917C4660.6 888.387 4641.36 866.68 4615.71 851.88C4591.04 836.093 4560.45 828.2 4523.95 828.2C4485.47 828.2 4451.92 837.08 4423.31 854.84C4394.69 871.613 4372.49 895.787 4356.71 927.36C4341.91 957.947 4334.51 994.453 4334.51 1036.88C4334.51 1080.29 4342.4 1118.28 4358.19 1150.84C4374.96 1182.41 4398.64 1207.08 4429.23 1224.84C4459.81 1241.61 4495.33 1250 4535.79 1250C4572.29 1250 4605.35 1244.08 4634.95 1232.24C4664.55 1219.41 4690.2 1200.67 4711.91 1176L4825.87 1289.96C4791.33 1330.41 4748.91 1361 4698.59 1381.72C4649.25 1402.44 4595.48 1412.8 4537.27 1412.8ZM5477.09 1398V988.04C5477.09 945.613 5463.77 911.08 5437.13 884.44C5410.49 857.8 5375.96 844.48 5333.53 844.48C5305.9 844.48 5281.24 850.4 5259.53 862.24C5237.82 874.08 5220.56 890.853 5207.73 912.56C5195.89 934.267 5189.97 959.427 5189.97 988.04L5114.49 949.56C5114.49 893.32 5126.33 844.48 5150.01 803.04C5174.68 760.613 5208.22 727.56 5250.65 703.88C5294.06 680.2 5342.9 668.36 5397.17 668.36C5449.46 668.36 5496.33 681.68 5537.77 708.32C5579.21 733.973 5611.77 768.013 5635.45 810.44C5659.13 851.88 5670.97 896.773 5670.97 945.12V1398H5477.09ZM4996.09 1398V683.16H5189.97V1398H4996.09ZM5913.19 1398V606.2C5913.19 548.973 5925.53 498.653 5950.19 455.24C5974.86 410.84 6009.89 375.813 6055.27 350.16C6100.66 324.507 6153.94 311.68 6215.11 311.68C6261.49 311.68 6301.45 319.573 6334.99 335.36C6368.54 351.147 6398.63 372.853 6425.27 400.48L6302.43 524.8C6291.58 513.947 6279.74 505.56 6266.91 499.64C6254.09 493.72 6237.81 490.76 6218.07 490.76C6182.55 490.76 6154.93 500.627 6135.19 520.36C6116.45 539.107 6107.07 566.24 6107.07 601.76V1398H5913.19ZM5747.43 853.36V683.16H6318.71V853.36H5747.43ZM6646.13 1403.92L6347.17 683.16H6557.33L6755.65 1233.72H6684.61L6890.33 683.16H7101.97L6783.77 1402.44L6646.13 1403.92ZM6447.81 1696.96L6665.37 1236.68L6783.77 1402.44L6653.53 1696.96H6447.81Z" fill="white"/>
<g clip-path="url(#clip1_90_1037)">
<path fill-rule="evenodd" clip-rule="evenodd" d="M850 1700C1319.44 1700 1700 1319.44 1700 850C1700 380.558 1319.44 0 850 0C380.558 0 0 380.558 0 850C0 1319.44 380.558 1700 850 1700ZM841.936 667.829L841.84 667.734L1080.98 428.593C1124.72 384.855 1124.72 313.94 1080.98 270.201C1037.24 226.463 966.327 226.463 922.589 270.201L683.448 509.342L683.443 509.336C682.776 510.003 682.111 510.672 681.448 511.342L656.716 536.074C648.39 544.4 641.648 553.712 636.492 563.634C580.451 638.853 547.385 728.065 542.942 818.836C539.34 892.425 554.74 963.139 586.771 1024.61L410.5 1200.89C366.761 1244.63 366.761 1315.54 410.5 1359.28C454.238 1403.02 525.153 1403.02 568.892 1359.28L745.163 1183.01C806.639 1215.04 877.353 1230.44 950.942 1226.84C1041.58 1222.4 1130.66 1189.42 1205.81 1133.53C1215.81 1128.36 1225.19 1121.59 1233.57 1113.21L1499.44 847.333C1543.18 803.594 1543.18 732.68 1499.44 688.941C1455.71 645.203 1384.79 645.203 1341.05 688.941L1102.05 927.943L1101.95 927.842C1063.92 965.871 1013.75 988.646 962.479 991.156C911.207 993.665 863.033 975.705 828.553 941.225C794.073 906.745 776.113 858.57 778.622 807.299C781.132 756.027 803.907 705.859 841.936 667.829ZM876.483 734.903C832.744 778.642 832.744 849.556 876.483 893.295C920.222 937.034 991.136 937.034 1034.88 893.295L1290.14 638.03C1333.88 594.291 1333.88 523.376 1290.14 479.638C1246.4 435.899 1175.49 435.899 1131.75 479.638L876.483 734.903Z" fill="white"/>
</g>
</g>
<defs>
<clipPath id="clip0_90_1037">
<rect width="7114" height="1700" fill="white"/>
</clipPath>
<clipPath id="clip1_90_1037">
<rect width="1700" height="1700" fill="white"/>
</clipPath>
</defs>
</svg>
